<svg width="979.32677" height="424.8366" xmlns="http://www.w3.org/2000/svg" data-name="Layer 1">

 <g>
  <title>Layer 1</title>
  <path id="svg_1" fill="#ccc" d="m883.38155,175.25766l-574.57616,0a9.19888,9.19888 0 0 0 0,18.39776l16.275,0l0,220.06548a9.19888,9.19888 0 0 0 18.39776,0l0.1398,-220.06548l461.1557,0l42.52,220.06548a9.19887,9.19887 0 1 0 18.39775,0l2.67633,-220.06548l15.01383,0a9.19888,9.19888 0 0 0 0,-18.39776l-0.00001,0z"/>
  <path id="svg_2" fill="#BBBBBB" d="m408.40055,134.26877l0,38.9547l-97.59616,0a19.48915,19.48915 0 1 1 -1.35523,-38.95474q0.67739,-0.02358 1.35523,0l97.59616,0.00004z"/>
  <path id="svg_3" fill="#884D58" d="m410.79788,172.92382a1.49881,1.49881 0 0 1 -1.49822,1.49822l-100.23354,0a20.52615,20.52615 0 0 1 0,-41.05229l100.23354,0a1.49827,1.49827 0 1 1 0,2.99653l-100.23354,0a17.52964,17.52964 0 0 0 0,35.05924l100.23354,0a1.49883,1.49883 0 0 1 1.49822,1.4983z"/>
  <path id="svg_4" fill="#ccc" d="m408.40055,143.2583l-104.87811,0a0.29966,0.29966 0 0 1 -0.00552,-0.59929l104.88363,0a0.29966,0.29966 0 0 1 0,0.59929z"/>
  <path id="svg_5" fill="#ccc" d="m408.40055,150.44999l-104.87811,0a0.29966,0.29966 0 0 1 -0.00552,-0.59929l104.88363,0a0.29966,0.29966 0 0 1 0,0.59929z"/>
  <path id="svg_6" fill="#ccc" d="m408.40055,157.64162l-104.87811,0a0.29966,0.29966 0 0 1 -0.00552,-0.59929l104.88363,0a0.29966,0.29966 0 0 1 0,0.59929z"/>
  <path id="svg_7" fill="#ccc" d="m408.40055,164.83317l-104.87811,0a0.29966,0.29966 0 0 1 -0.00552,-0.59929l104.88363,0a0.29966,0.29966 0 0 1 0,0.59929z"/>
  <path id="svg_8" fill="#f2f2f2" d="m390.0028,93.22762l0,38.95474l-97.59617,0a19.48915,19.48915 0 0 1 -1.35522,-38.95474q0.67737,-0.02358 1.35522,0l97.59617,0z"/>
  <path id="svg_9" fill="#3f3d56" d="m392.40012,131.88272a1.49885,1.49885 0 0 1 -1.49822,1.49826l-100.23351,0a20.52614,20.52614 0 0 1 0,-41.05229l100.23351,0a1.49826,1.49826 0 1 1 0,2.99652l-100.23351,0a17.52964,17.52964 0 0 0 0,35.05928l100.23351,0a1.49884,1.49884 0 0 1 1.49822,1.49823z"/>
  <path id="svg_10" fill="#ccc" d="m390.0028,102.21716l-104.87811,0a0.29966,0.29966 0 0 1 -0.00553,-0.59929l104.88364,0a0.29966,0.29966 0 0 1 0,0.59929z"/>
  <path id="svg_11" fill="#ccc" d="m390.0028,109.40884l-104.87811,0a0.29966,0.29966 0 0 1 -0.00553,-0.59929l104.88364,0a0.29966,0.29966 0 0 1 0,0.59929z"/>
  <path id="svg_12" fill="#ccc" d="m390.0028,116.60047l-104.87811,0a0.29966,0.29966 0 0 1 -0.00553,-0.59929l104.88364,0a0.29966,0.29966 0 0 1 0,0.59929z"/>
  <path id="svg_13" fill="#ccc" d="m390.0028,123.79206l-104.87811,0a0.29966,0.29966 0 0 1 -0.00553,-0.59929l104.88364,0a0.29966,0.29966 0 0 1 0,0.59929z"/>
  <path id="svg_14" fill="#ccc" d="m503.53694,313.10177l0,-33.96509a5.661,5.661 0 0 0 -5.66085,-5.66085l-128.7843,0a5.661,5.661 0 0 0 -5.66084,5.66085l0,33.96509l140.10599,0z"/>
  <rect id="svg_15" fill="#ccc" height="43.87158" width="140.10602" y="325.83868" x="363.43092"/>
  <path id="svg_16" fill="#ccc" d="m363.43095,382.44717l0,33.96513a5.661,5.661 0 0 0 5.66084,5.66084l128.7843,0a5.661,5.661 0 0 0 5.66085,-5.66084l0,-33.96513l-140.10599,0z"/>
  <circle id="svg_17" fill="#fff" r="4.24564" cy="294.70402" cx="432.77633"/>
  <circle id="svg_18" fill="#fff" r="4.24564" cy="351.3125" cx="432.77633"/>
  <circle id="svg_19" fill="#fff" r="4.24564" cy="406.72228" cx="433.00385"/>
  <path id="svg_20" fill="#f2f2f2" d="m487.65239,234.74883l0,38.9547l-97.59613,0a19.48916,19.48916 0 0 1 -1.35647,-38.9547q0.678,-0.02358 1.35647,0l97.59613,0z"/>
  <path id="svg_21" fill="#3f3d56" d="m490.04976,273.40388a1.49881,1.49881 0 0 1 -1.49822,1.49822l-100.23354,0a20.52615,20.52615 0 0 1 -0.0247,-41.05229l100.25824,0a1.49827,1.49827 0 1 1 0,2.99653l-100.23354,0a17.52963,17.52963 0 0 0 0,35.05923l100.23354,0a1.49885,1.49885 0 0 1 1.49822,1.49831z"/>
  <path id="svg_22" fill="#ccc" d="m487.65239,243.7383l-104.878,0a0.29966,0.29966 0 0 1 -0.00553,-0.59929l104.88366,0a0.29966,0.29966 0 0 1 0,0.59929l-0.00013,0z"/>
  <path id="svg_23" fill="#ccc" d="m487.65239,250.93005l-104.878,0a0.29966,0.29966 0 0 1 -0.00553,-0.59929l104.88366,0a0.29966,0.29966 0 0 1 0,0.59929l-0.00013,0z"/>
  <path id="svg_24" fill="#ccc" d="m487.65239,258.12168l-104.878,0a0.29966,0.29966 0 0 1 -0.00553,-0.59929l104.88366,0a0.29966,0.29966 0 0 1 0,0.59929l-0.00013,0z"/>
  <path id="svg_25" fill="#ccc" d="m487.65239,265.31323l-104.878,0a0.29966,0.29966 0 0 1 -0.00553,-0.59929l104.88366,0a0.29966,0.29966 0 0 1 0,0.59929l-0.00013,0z"/>
  <path id="svg_26" fill="#3f3d56" d="m373.03086,80.23245l-44.46585,0a2.74745,2.74745 0 0 0 -1.21689,0.28306l-11.22288,5.61835a2.0452,2.0452 0 0 0 0,3.76443l11.22288,5.61835a2.74718,2.74718 0 0 0 1.21689,0.28306l44.46585,0a2.33381,2.33381 0 0 0 2.4628,-2.16532l0,-11.2367a2.3338,2.3338 0 0 0 -2.4628,-2.16523z"/>
  <path id="svg_27" fill="#6c63ff" d="m375.49366,82.39777l0,11.2367a2.33383,2.33383 0 0 1 -2.4628,2.16532l-8.8589,0l0,-15.56734l8.8589,0a2.33383,2.33383 0 0 1 2.4628,2.16532z"/>
  <path id="svg_33" fill="#e6e6e6" d="m624.63639,174.3733l-4.69488,-1.97685l-3.22067,-23.53551l-42.889,0l-3.491,23.43936l-4.20031,2.10013a0.99744,0.99744 0 0 0 0.44611,1.88955l57.66283,0a0.99739,0.99739 0 0 0 0.38692,-1.91668z"/>
  <path id="svg_34" fill="#ccc" d="m700.85319,151.9923l-210.68288,0a4.174,4.174 0 0 1 -4.16467,-4.174l0,-29.70908l219.01221,0l0,29.70908a4.17408,4.17408 0 0 1 -4.16466,4.174z"/>
  <path id="svg_35" fill="#3f3d56" d="m705.23808,132.15043l-219.42469,0l0,-127.11876a5.0375,5.0375 0 0 1 5.03186,-5.03167l209.361,0a5.03755,5.03755 0 0 1 5.03191,5.03167l-0.00008,127.11876z"/>
  <path id="svg_36" fill="#fff" d="m692.13271,122.92414l-193.214,0a3.88344,3.88344 0 0 1 -3.87919,-3.87908l0,-105.93969a3.88365,3.88365 0 0 1 3.87919,-3.87932l193.214,0a3.88366,3.88366 0 0 1 3.8792,3.87932l0,105.93969a3.88345,3.88345 0 0 1 -3.8792,3.87908z"/>
  <path id="svg_37" fill="#ffb6b6" d="m641.24303,160.30492a11.6159,11.6159 0 0 1 17.666,2.27241l26.13446,-4.64642l6.69716,15.19317l-36.99908,6.04328a11.67883,11.67883 0 0 1 -13.49855,-18.86244l0.00001,0z"/>
  <path id="svg_38" fill="#529D94" d="m665.4395,179.7043l27.24571,-0.33963l3.44882,-0.04668l55.43253,-0.69843s15.05312,-14.3609 28.16068,-29.1465l-1.83719,-13.28833a54.29159,54.29159 0 0 0 -18.20366,-33.61453c-18.77312,12.5441 -29.66,37.37369 -29.66,37.37369l-34.37018,8.22071l-3.43848,0.82227l-21.35608,5.10326l-5.42215,25.61417z"/>
  <path id="svg_39" fill="#e4e4e4" d="m804.9135,261.37997l-50.85762,0c0,2.17915 -55.59414,3.94772 -55.59414,3.94772a20.30858,20.30858 0 0 0 -3.33166,3.15818a19.59694,19.59694 0 0 0 -4.58,12.63271l0,3.15818a19.74588,19.74588 0 0 0 19.73861,19.73861l94.62478,0a19.75579,19.75579 0 0 0 19.73862,-19.73861l0,-3.15818a19.76607,19.76607 0 0 0 -19.73859,-19.73861z"/>
  <rect id="svg_40" fill="#e4e4e4" height="118.48951" width="20.52816" y="303.23122" x="747.4019"/>
  <path id="svg_41" fill="#e4e4e4" d="m688.97561,420.99962c0,2.218 31.10721,0.858 69.47992,0.858s69.47991,1.36012 69.47991,-0.858s-31.1072,-19.807 -69.47991,-19.807s-69.47992,17.58891 -69.47992,19.807z"/>
  <polygon id="svg_42" fill="#ffb6b6" points="675.186 407.461 659.908 407.46 652.64 348.531 675.188 348.532 675.186 407.461"/>
  <path id="svg_43" fill="#2f2e41" d="m679.08202,422.2703l-49.2623,-0.00183l0,-0.62309a19.17528,19.17528 0 0 1 19.17426,-19.17395l0.00122,0l30.08773,0.00122l-0.00091,19.79765z"/>
  <polygon id="svg_44" fill="#ffb6b6" points="630.031 407.461 614.753 407.46 607.485 348.531 630.033 348.532 630.031 407.461"/>
  <path id="svg_45" fill="#2f2e41" d="m633.92699,422.2703l-49.2623,-0.00183l0,-0.62309a19.1753,19.1753 0 0 1 19.17426,-19.17395l0.00122,0l30.08773,0.00122l-0.00091,19.79765z"/>
  <circle id="svg_46" fill="#ffb6b6" r="26.56401" cy="41.63615" cx="766.88656"/>
  <path id="svg_47" fill="#2f2e41" d="m809.87994,223.64247s8.91308,47.1307 -24.99958,53.13247s-82.86639,10.21993 -82.86639,10.21993l-21.98352,102.56667l-29.53443,-2.63675s3.928,-123.46737 13.5876,-133.127s70.71212,-38.58282 70.71212,-38.58282l75.0842,8.4275z"/>
  <path id="svg_48" fill="#2f2e41" d="m743.64625,203.88965l-14.83186,14.87927s-107.0941,17.25 -111.22553,41.9852c-6.23747,37.34427 -13.60493,118.552 -13.60493,118.552l32.1988,-2.41491l12.62647,-92.31123l51.5182,-11.71874l58.61328,-31.94294l-15.29443,-37.02865z"/>
  <path id="svg_49" fill="#2f2e41" d="m792.44865,25.77945c-2.6223,-4.94751 -5.95413,-14.80785 -11.24679,-16.63657a42.07731,42.07731 0 0 0 -9.05841,-1.92972l-8.99618,3.46009l4.89616,-3.808q-1.42988,-0.08519 -2.85817,-0.13928l-6.0699,2.33453l3.10542,-2.41532c-5.65883,-0.05808 -11.5,0.53031 -15.88468,3.9752c-3.73817,2.93677 -7.44169,14.06185 -8.04057,18.77753a35.9171,35.9171 0 0 0 0.6603,13.53055l1.53716,1.46166a18.85936,18.85936 0 0 0 1.206,-3.83883a18.18056,18.18056 0 0 1 8.70263,-11.80641l0.08368,-0.0472c2.5782,-1.451 5.7065,-1.3841 8.66308,-1.27769l14.04158,0.50527c3.37829,0.12158 7.01608,0.33533 9.64978,2.45443a15.888,15.888 0 0 1 3.85826,5.58929c1.30868,2.6414 3.8661,12.60418 3.8661,12.60418s1.44689,-1.88062 2.1404,-0.48092a48.39766,48.39766 0 0 0 2.01437,-11.23347a22.00877,22.00877 0 0 0 -2.27022,-11.07932z"/>
  <path id="svg_50" fill="#ffb6b6" d="m885.35765,53.30179a11.61582,11.61582 0 0 0 -10.51326,14.37787l-21.3614,15.75722l6.40951,15.31674l29.8539,-22.67594a11.67883,11.67883 0 0 0 -4.38876,-22.77589l0.00001,0z"/>
  <path id="svg_51" fill="#5b9ba2" d="m881.91966,85.4703l-53.551,59.4744s-25.60913,-8.19816 -45.41466,-17.08624l-8.8977,-27.32787a54.34329,54.34329 0 0 1 -2.60112,-19.66442c27.45606,-7.306 59.391,19.87863 59.391,19.87863l40.08517,-31.39877l10.98831,16.12427z"/>
  <path id="svg_52" fill="#5b9ba2" d="m756.96439,228.0352c-9.554,-3.30029 -19.43312,-6.71277 -30.08912,-7.99385l-0.45773,-0.05533l0.12632,-0.443c11.03073,-38.7308 8.27761,-63.50657 2.87195,-100.72306a37.59072,37.59072 0 0 1 21.5483,-39.50121l0.06542,-0.02958l30.43436,-1.93391l0.06935,-0.00423l22.13437,6.50989a15.18313,15.18313 0 0 1 10.86724,14.83111c-0.23987,12.23937 0.26868,25.9043 0.80711,40.37114c1.20787,32.45569 2.45686,66.01647 -4.63045,87.79166l-0.03718,0.11412l-0.09462,0.07416a36.09883,36.09883 0 0 1 -23.08086,8.10758c-9.93489,-0.00004 -20.0736,-3.50205 -30.53446,-7.11549z"/>
 </g>
</svg>